<?xml version="1.0" encoding="utf-8"?>
<svg xmlns="http://www.w3.org/2000/svg" fill="none" height="100%" overflow="visible" preserveAspectRatio="none" style="display: block;" viewBox="0 0 46.9745 48" width="100%">
  <g transform="rotate(180, 23.48725, 24)">
    <!-- Original Favicon Content -->
    <path d="M23.104 12.8137C21.7653 14.053 20.6054 13.8259 20.5882 12.7306C21.0966 9.57623 25.8781 9.57623 26.3865 12.7306C26.3693 13.8259 25.2093 14.053 23.8707 12.8137C23.7415 12.5803 23.2331 12.5803 23.104 12.8137Z" fill="#C45757"/>
    <path d="M21.7187 19.5007C21.9603 19.4361 22.5498 19.4176 23.4874 19.4453C24.4248 19.4176 25.0144 19.4361 25.256 19.5007C26.7777 20.2726 20.197 20.2726 21.7187 19.5007Z" fill="#5E5F7A"/>
    <path d="M44.6213 32.6122C43.063 32.1822 41.6556 32.3078 40.3991 32.9891C40.1432 31.5407 39.5374 30.5876 38.5817 30.1298C39.6471 33.5366 35.9013 34.523 37.5178 36.7458C36.536 36.5051 35.8786 36.2098 35.5452 35.8592C36.1494 39.3528 38.5064 38.695 40.3547 40.403C40.8863 38.4475 40.7683 36.5266 40.0002 34.6403C42.2734 37.6473 42.6388 40.6581 41.0972 43.6722C39.2609 42.0103 36.6271 42.0214 35.0242 41.079C35.3721 40.6147 35.5643 40.0199 35.6004 39.2948C34.8186 40.4444 33.7327 41.3753 32.3421 42.0875C32.8659 42.175 33.4127 42.0791 33.9824 41.7992C34.1738 43.4373 33.801 44.7525 32.8632 45.7448C31.3722 43.4547 29.5068 42.2393 27.2663 42.0986C28.0024 42.4126 28.7301 42.9299 29.4496 43.6503C29.6042 43.9672 29.6412 44.4438 29.5605 45.0798C28.6525 44.323 27.2783 43.972 25.4378 44.027C24.6058 44.0804 23.9556 43.8773 23.4874 43.4176C23.019 43.8773 22.3689 44.0804 21.5367 44.027C19.6963 43.972 18.3222 44.323 17.4142 45.0798C17.3334 44.4438 17.3704 43.9672 17.5249 43.6503C18.2445 42.9299 18.9723 42.4126 19.7082 42.0986C17.4678 42.2393 15.6023 43.4547 14.1116 45.7448C13.1738 44.7525 12.8007 43.4373 12.9923 41.7992C13.5618 42.0791 14.1086 42.175 14.6325 42.0875C13.242 41.3753 12.1559 40.4444 11.3743 39.2948C11.4103 40.0199 11.6025 40.6147 11.9505 41.079C10.3474 42.0214 7.7137 42.0103 5.87747 43.6722C4.33568 40.6581 4.70146 37.6473 6.97446 34.6403C6.20634 36.5266 6.08827 38.4475 6.61980 40.403C8.4683 38.695 10.825 39.3528 11.4295 35.8592C11.096 36.2098 10.4385 36.5051 9.45684 36.7458C11.0733 34.523 7.32752 33.5366 8.39297 30.1298C7.43729 30.5876 6.83157 31.5407 6.57547 32.9891C5.31907 32.3078 3.91152 32.1822 2.35321 32.6122" fill="white"/>
  </g>
</svg>
